Coordinates
version=1
nRows=8
nColumns=63
inDegrees=yes

Units are S.I. units (second, meters, Newtons, ...)
If the header above contains a line with 'inDegrees', this indicates whether rotational values are in degrees (yes) or radians (no).

endheader
time	pelvis_tilt	pelvis_list	pelvis_rotation	pelvis_tx	pelvis_ty	pelvis_tz	hip_flexion_r	hip_adduction_r	hip_rotation_r	knee_angle_r	knee_angle_r_beta	ankle_angle_r	subtalar_angle_r	mtp_angle_r	hip_flexion_l	hip_adduction_l	hip_rotation_l	knee_angle_l	knee_angle_l_beta	ankle_angle_l	subtalar_angle_l	mtp_angle_l	L5_S1_Flex_Ext	L5_S1_Lat_Bending	L5_S1_axial_rotation	L4_L5_Flex_Ext	L4_L5_Lat_Bending	L4_L5_axial_rotation	L3_L4_Flex_Ext	L3_L4_Lat_Bending	L3_L4_axial_rotation	L2_L3_Flex_Ext	L2_L3_Lat_Bending	L2_L3_axial_rotation	L1_L2_Flex_Ext	L1_L2_Lat_Bending	L1_L2_axial_rotation	L1_T12_Flex_Ext	L1_T12_Lat_Bending	L1_T12_axial_rotation	Abs_r3	Abs_r2	Abs_r1	Abs_t1	Abs_t2	neck_flexion	neck_bending	neck_rotation	arm_flex_r	arm_add_r	arm_rot_r	elbow_flex_r	pro_sup_r	wrist_flex_r	wrist_dev_r	arm_flex_l	arm_add_l	arm_rot_l	elbow_flex_l	pro_sup_l	wrist_flex_l	wrist_dev_l
0.000000	-1.852487	-3.486473	92.912461	0.176691	0.999268	0.457173	1.710787	-2.154875	-7.723121	6.746195	0.117743	30.255087	13.735804	0.000000	0.487053	1.800007	9.762597	1.079298	0.018837	27.066164	-10.820275	0.000000	0.276176	-0.068837	-0.101903	0.512886	-0.091553	-0.108272	0.453730	-0.167370	-0.108272	0.315642	-0.167370	-0.089165	0.256457	-0.140372	-0.082796	0.157807	-0.106628	-0.076427	1.972697	-0.778697	-0.566756	0.000000	0.000000	27.724002	-5.067455	1.600062	19.198887	-1.360511	84.452682	29.150619	29.722052	10.390323	-12.619779	16.957436	-2.052191	62.611792	29.458536	59.865495	5.911467	-11.347523
0.016667	-1.903502	-3.516196	92.847738	0.176676	0.999222	0.456747	1.785237	-2.227618	-7.859693	7.029021	0.122680	30.258754	13.858898	0.000000	0.507964	1.856484	8.434891	1.138780	0.019875	27.191180	-9.582535	0.000000	0.294055	-0.081892	-0.019169	0.546090	-0.108916	-0.020367	0.483103	-0.199111	-0.020367	0.336075	-0.199111	-0.016773	0.273060	-0.166993	-0.015575	0.168023	-0.126850	-0.014376	2.100406	-0.926373	-0.106610	0.000000	0.000000	27.748575	-5.546968	0.440345	18.233558	-1.513492	78.759347	29.679923	37.563117	9.210176	-12.592034	17.928754	-1.902059	64.724261	28.617862	59.625720	7.087570	-11.508019
0.033333	-1.961971	-3.551256	92.797379	0.176657	0.999155	0.456426	1.856747	-2.311902	-7.987852	7.267004	0.126833	30.281416	13.993978	0.000000	0.534888	1.923264	7.403754	1.189520	0.020761	27.276482	-8.665355	0.000000	0.306410	-0.094500	0.047559	0.569033	-0.125686	0.050532	0.503400	-0.229768	0.050532	0.350195	-0.229768	0.041614	0.284532	-0.192705	0.038642	0.175082	-0.146381	0.035669	2.188653	-1.069008	0.264510	0.000000	0.000000	27.773323	-5.915746	-0.504430	17.452311	-1.624589	74.092568	30.098783	43.886537	8.261060	-12.521732	18.697889	-1.793779	66.310825	27.972008	59.563591	8.004870	-11.626186
0.050000	-2.026452	-3.590596	92.759611	0.176635	0.999068	0.456199	1.924989	-2.405766	-8.107590	7.463946	0.130270	30.320770	14.139510	0.000000	0.566542	1.998555	6.640955	1.232279	0.021507	27.325133	-8.038092	0.000000	0.313779	-0.106584	0.099819	0.582720	-0.141757	0.106057	0.515508	-0.259148	0.106057	0.358618	-0.259148	0.087341	0.291376	-0.217346	0.081103	0.179294	-0.165098	0.074864	2.241295	-1.205698	0.555162	0.000000	0.000000	27.797631	-6.183766	-1.253011	16.838665	-1.698450	70.363285	30.417353	48.834662	7.522447	-12.415632	19.283976	-1.722672	67.423809	27.502436	59.661310	8.687528	-11.706658
0.066667	-2.095499	-3.633159	92.732657	0.176608	0.998964	0.456057	1.989636	-2.507249	-8.218899	7.623649	0.133058	30.374515	14.293960	0.000000	0.601641	2.080568	6.118264	1.267822	0.022128	27.340197	-7.670105	0.000000	0.316704	-0.118062	0.139149	0.588152	-0.157023	0.147846	0.520314	-0.287056	0.147846	0.361961	-0.287056	0.121755	0.294092	-0.240752	0.113059	0.180965	-0.182878	0.104362	2.262188	-1.335543	0.773906	0.000000	0.000000	27.820887	-6.361002	-1.824142	16.376139	-1.739724	67.482441	30.645785	52.549846	6.973808	-12.280495	19.706150	-1.684056	68.115539	27.190605	59.901075	9.159707	-11.754065
0.083333	-2.167671	-3.677886	92.714744	0.176578	0.998846	0.455988	2.050363	-2.614392	-8.321773	7.749914	0.135262	30.440348	14.455793	0.000000	0.638901	2.167514	5.807450	1.296909	0.022635	27.324737	-7.530749	0.000000	0.315725	-0.128856	0.167089	0.586332	-0.171378	0.177532	0.518704	-0.313299	0.177532	0.360842	-0.313299	0.146203	0.293182	-0.262762	0.135760	0.180405	-0.199597	0.125317	2.255189	-1.457640	0.929299	0.000000	0.000000	27.842479	-6.457432	-2.236571	16.048254	-1.753060	65.360979	30.794233	55.174442	6.594616	-12.123082	19.983546	-1.673251	68.438342	27.017978	60.265088	9.445567	-11.773041
0.100000	-2.241522	-3.723722	92.704094	0.176545	0.998717	0.455985	2.106842	-2.725234	-8.416204	7.846545	0.136948	30.515968	14.623476	0.000000	0.677039	2.257602	5.680282	1.320304	0.023044	27.281816	-7.589384	0.000000	0.311380	-0.138884	0.185177	0.578264	-0.184716	0.196751	0.511566	-0.337683	0.196751	0.355876	-0.337683	0.162030	0.289147	-0.283213	0.150456	0.177922	-0.215132	0.138883	2.224155	-1.571087	1.029900	0.000000	0.000000	27.861794	-6.483032	-2.509043	15.838528	-1.743107	63.909839	30.872848	56.850802	6.364340	-11.950151	20.135299	-1.685574	68.444542	26.966015	60.735546	9.569271	-11.768216
0.116667	-2.315610	-3.769609	92.698934	0.176508	0.998579	0.456035	2.158746	-2.837815	-8.502185	7.917342	0.138184	30.599072	14.795475	0.000000	0.714771	2.349042	5.708528	1.338769	0.023366	27.214499	-7.815367	0.000000	0.304210	-0.148069	0.194952	0.564948	-0.196931	0.207137	0.499787	-0.360014	0.207137	0.347682	-0.360014	0.170583	0.282489	-0.301942	0.158399	0.173826	-0.229358	0.146214	2.172942	-1.674982	1.084267	0.000000	0.000000	27.878218	-6.447778	-2.660304	15.730483	-1.714512	63.039966	30.891786	57.721280	6.262452	-11.768463	20.180546	-1.716345	68.186467	27.016179	61.294650	9.554981	-11.744225
